name Walk3.mot
datacolumns 19
datarows 17
range 2.48700000 2.50300000
endheader

                time	   L_ground_force_vx	   L_ground_force_vy	   L_ground_force_vz	   L_ground_force_px	   L_ground_force_py	   L_ground_force_pz	   R_ground_force_vx	   R_ground_force_vy	   R_ground_force_vz	   R_ground_force_px	   R_ground_force_py	   R_ground_force_pz	   L_ground_torque_x	   L_ground_torque_y	   L_ground_torque_z	   R_ground_torque_x	   R_ground_torque_y	   R_ground_torque_z	
          2.48700000	          0.00000000	          0.00000000	         -0.00000000	         -0.00000000	          0.00000000	         -0.00000000	          3.74912594	         21.86282483	          1.41586447	          0.15987733	          0.00000000	          0.05378672	          0.00000000	          0.00000000	          0.00000000	          0.00000000	         -0.00526813	          0.00000000	
          2.48800000	          0.00000000	          0.00000000	         -0.00000000	         -0.00000000	          0.00000000	         -0.00000000	          3.16252385	         19.64163811	          1.37414928	          0.15318896	          0.00000000	          0.05146490	          0.00000000	          0.00000000	          0.00000000	          0.00000000	         -0.00434879	          0.00000000	
          2.48900000	          0.00000000	          0.00000000	         -0.00000000	         -0.00000000	          0.00000000	         -0.00000000	          2.61384692	         17.53509227	          1.33078899	          0.14649070	          0.00000000	          0.04914613	          0.00000000	          0.00000000	          0.00000000	          0.00000000	         -0.00349118	          0.00000000	
          2.49000000	          0.00000000	          0.00000000	         -0.00000000	         -0.00000000	          0.00000000	         -0.00000000	          2.10194367	         15.54139270	          1.28608663	          0.13980840	          0.00000000	          0.04683879	          0.00000000	          0.00000000	          0.00000000	          0.00000000	         -0.00269330	          0.00000000	
          2.49100000	          0.00000000	          0.00000000	         -0.00000000	         -0.00000000	          0.00000000	         -0.00000000	          1.62562181	         13.65847846	          1.24032523	          0.13316595	          0.00000000	          0.04455064	          0.00000000	          0.00000000	          0.00000000	          0.00000000	         -0.00195307	          0.00000000	
          2.49200000	          0.00000000	          0.00000000	         -0.00000000	         -0.00000000	          0.00000000	         -0.00000000	          1.18365597	         11.88404522	          1.19376776	          0.12658507	          0.00000000	          0.04228869	          0.00000000	          0.00000000	          0.00000000	          0.00000000	         -0.00126841	          0.00000000	
          2.49300000	          0.00000000	          0.00000000	         -0.00000000	         -0.00000000	          0.00000000	         -0.00000000	          0.77479515	         10.21557464	          1.14665782	          0.12008538	          0.00000000	          0.04005927	          0.00000000	          0.00000000	          0.00000000	          0.00000000	         -0.00063716	          0.00000000	
          2.49400000	          0.00000000	          0.00000000	         -0.00000000	         -0.00000000	          0.00000000	         -0.00000000	          0.39776960	          8.65036210	          1.09922042	          0.11368456	          0.00000000	          0.03786802	          0.00000000	          0.00000000	          0.00000000	          0.00000000	         -0.00005718	          0.00000000	
          2.49500000	          0.00000000	          0.00000000	         -0.00000000	         -0.00000000	          0.00000000	         -0.00000000	          0.05129726	          7.18554275	          1.05166264	          0.10739836	          0.00000000	          0.03571999	          0.00000000	          0.00000000	          0.00000000	          0.00000000	          0.00047371	          0.00000000	
          2.49600000	          0.00000000	          0.00000000	         -0.00000000	         -0.00000000	          0.00000000	         -0.00000000	         -0.26591040	          5.81811594	          1.00417443	          0.10124082	          0.00000000	          0.03361961	          0.00000000	          0.00000000	          0.00000000	          0.00000000	          0.00095767	          0.00000000	
          2.49700000	          0.00000000	          0.00000000	         -0.00000000	         -0.00000000	          0.00000000	         -0.00000000	         -0.55514293	          4.54496815	          0.95692933	          0.09522425	          0.00000000	          0.03157078	          0.00000000	          0.00000000	          0.00000000	          0.00000000	          0.00139686	          0.00000000	
          2.49800000	          0.00000000	          0.00000000	         -0.00000000	         -0.00000000	          0.00000000	         -0.00000000	         -0.81768595	          3.36289431	          0.91008519	          0.08935940	          0.00000000	          0.02957685	          0.00000000	          0.00000000	          0.00000000	          0.00000000	          0.00179343	          0.00000000	
          2.49900000	          0.00000000	          0.00000000	         -0.00000000	         -0.00000000	          0.00000000	         -0.00000000	         -1.05481662	          2.26861771	          0.86378493	          0.08365554	          0.00000000	          0.02764069	          0.00000000	          0.00000000	          0.00000000	          0.00000000	          0.00214951	          0.00000000	
          2.50000000	          0.00000000	          0.00000000	         -0.00000000	         -0.00000000	          0.00000000	         -0.00000000	         -1.26779955	          1.25880849	          0.81815728	          0.07812052	          0.00000000	          0.02576470	          0.00000000	          0.00000000	          0.00000000	          0.00000000	          0.00246718	          0.00000000	
          2.50100000	          0.00000000	          0.00000000	         -0.00000000	         -0.00000000	          0.00000000	         -0.00000000	         -1.45788306	          0.33010071	          0.77331745	          0.07276092	          0.00000000	          0.02395085	          0.00000000	          0.00000000	          0.00000000	          0.00000000	          0.00274853	          0.00000000	
          2.50200000	          0.00000000	          0.00000000	         -0.00000000	         -0.00000000	          0.00000000	         -0.00000000	         -1.62629588	         -0.52089183	          0.72936790	          0.06758207	          0.00000000	          0.02220072	          0.00000000	          0.00000000	          0.00000000	          0.00000000	          0.00299557	          0.00000000	
          2.50300000	          0.00000000	          0.00000000	         -0.00000000	         -0.00000000	          0.00000000	         -0.00000000	         -1.77424415	         -1.29756112	          0.68639901	          0.06258817	          0.00000000	          0.02051551	          0.00000000	          0.00000000	          0.00000000	          0.00000000	          0.00321028	          0.00000000	
